<svg width="31" height="30" viewBox="0 0 31 30" fill="none" xmlns="http://www.w3.org/2000/svg">
<path d="M15.5 19.6875C18.0888 19.6875 20.1875 17.5888 20.1875 15C20.1875 12.4112 18.0888 10.3125 15.5 10.3125C12.9112 10.3125 10.8125 12.4112 10.8125 15C10.8125 17.5888 12.9112 19.6875 15.5 19.6875Z" stroke="#EDCE4B" stroke-width="2.3" stroke-miterlimit="10"/>
<path d="M20.6562 4.21875H10.3438C7.23715 4.21875 4.71875 6.73715 4.71875 9.84375V20.1562C4.71875 23.2629 7.23715 25.7812 10.3438 25.7812H20.6562C23.7629 25.7812 26.2812 23.2629 26.2812 20.1562V9.84375C26.2812 6.73715 23.7629 4.21875 20.6562 4.21875Z" stroke="#EDCE4B" stroke-width="2.3" stroke-linecap="round" stroke-linejoin="round"/>
<path d="M21.5938 10.3125C22.3704 10.3125 23 9.6829 23 8.90625C23 8.1296 22.3704 7.5 21.5938 7.5C20.8171 7.5 20.1875 8.1296 20.1875 8.90625C20.1875 9.6829 20.8171 10.3125 21.5938 10.3125Z" fill="#EDCE4B"/>
</svg>
