<svg width="54" height="27" viewBox="0 0 54 27" fill="none" xmlns="http://www.w3.org/2000/svg">
<path d="M12.8428 22.9911L12.8067 3.23588L8.34306 22.9911H6.73588L2.27223 3.23588L2.30835 22.9911H0.55835L0.773405 1.35327H3.34423L7.52059 19.5475L11.697 1.35327H14.2678L14.5173 22.9911H12.8395H12.8428Z" fill="#522742"/>
<path d="M27.0513 21.7534V22.2319C27.0513 22.387 27.0398 22.547 27.0152 22.7119C27.0152 22.854 26.9971 23.0613 26.961 23.3324C26.9249 23.605 26.8478 23.8891 26.7296 24.1847C26.6097 24.4818 26.4373 24.7888 26.2124 25.1072C25.9859 25.4272 25.6822 25.7179 25.303 25.9775C24.8039 26.3089 24.3098 26.5098 23.8205 26.5816C23.333 26.6518 22.9932 26.6878 22.8027 26.6878C22.6123 26.6878 22.3217 26.6633 21.9277 26.6175C21.5354 26.5702 21.125 26.4281 20.6965 26.1914C20.1728 25.9073 19.7739 25.5579 19.4997 25.1431C19.2256 24.73 19.0286 24.3153 18.9104 23.9006C18.7905 23.4875 18.7249 23.107 18.7134 22.7642C18.7002 22.4213 18.6953 22.178 18.6953 22.0359V18.4144H20.4092V21.6816C20.4092 22.2498 20.4502 22.7952 20.534 23.3144C20.6177 23.8353 20.9198 24.2843 21.4434 24.6631C21.7291 24.8754 22.0082 25.006 22.2823 25.0533C22.5565 25.1007 22.7518 25.1235 22.8717 25.1235C22.9915 25.1235 23.1803 25.1056 23.443 25.0713C23.704 25.0354 23.9667 24.9243 24.2277 24.7333C24.5133 24.5439 24.7333 24.3251 24.8893 24.0769C25.0436 23.8287 25.1569 23.5789 25.2291 23.3307C25.2997 23.0825 25.3358 22.8572 25.3358 22.6564V1.26514H27.0497V21.7534H27.0513Z" fill="#333333"/>
<path d="M40.5128 21.2212C40.5128 21.8139 40.4701 22.3756 40.388 22.9078C40.3043 23.4401 40.0958 23.9675 39.7625 24.4884C39.6197 24.7251 39.4293 24.9668 39.1912 25.2166C38.9532 25.4648 38.6561 25.6967 38.2982 25.9089C37.9403 26.1228 37.5184 26.2992 37.0308 26.4412C36.5432 26.5833 35.9785 26.6535 35.335 26.6535C35.2152 26.6535 35.0017 26.6404 34.6931 26.6176C34.3828 26.5931 34.0381 26.5343 33.6572 26.4396C33.2764 26.3449 32.884 26.1979 32.4785 25.9955C32.073 25.7946 31.7168 25.504 31.4065 25.1252C30.9075 24.5096 30.5972 23.8532 30.479 23.1544C30.3592 22.4572 30.3 21.729 30.3 20.9714V6.83951C30.3 6.69746 30.3181 6.33008 30.3526 5.73901C30.3887 5.14793 30.5003 4.56666 30.6908 4.00008C31.047 2.93386 31.6675 2.15992 32.5573 1.67335C33.4455 1.18841 34.4239 0.958181 35.4893 0.981041C36.059 0.981041 36.6155 1.05125 37.1605 1.19494C37.7055 1.33699 38.2144 1.57375 38.6889 1.9052C39.1502 2.23666 39.5015 2.61547 39.7445 3.04163C39.9874 3.46779 40.1631 3.92334 40.2714 4.40828C40.3814 4.89322 40.4471 5.38469 40.4717 5.88106C40.4963 6.37743 40.5095 6.87543 40.5095 7.37343V21.2212H40.5128ZM38.7989 8.33189C38.7989 7.2673 38.7628 6.41498 38.6922 5.77493C38.6216 5.13487 38.4558 4.57972 38.1947 4.10621C38.1242 3.96416 38.0043 3.78128 37.8385 3.55596C37.6727 3.33063 37.4117 3.1249 37.0571 2.93386C36.9389 2.86365 36.732 2.78038 36.4349 2.68568C36.1394 2.59098 35.7897 2.54363 35.3875 2.54363C34.8901 2.54363 34.4813 2.60894 34.1612 2.73793C33.8411 2.86855 33.6113 2.98122 33.4684 3.07592C33.0892 3.33716 32.8003 3.63923 32.5984 3.98212C32.3981 4.325 32.2553 4.66299 32.1715 4.99445C32.0894 5.32591 32.0418 5.63287 32.0304 5.91698C32.0172 6.20109 32.0123 6.39049 32.0123 6.48519V20.2986C32.0123 21.0089 32.0303 21.5771 32.0648 22.0033C32.1009 22.4294 32.1765 22.8082 32.2963 23.1397C32.3669 23.3062 32.4736 23.5006 32.6164 23.7259C32.7592 23.9512 32.953 24.1651 33.2025 24.3643C33.452 24.5651 33.759 24.7366 34.1267 24.8786C34.4945 25.0207 34.9262 25.0925 35.4236 25.0925C36.1804 25.0925 36.8322 24.8917 37.3772 24.4884C38.0404 24.0149 38.4426 23.4222 38.5855 22.7135C38.7283 22.0033 38.7989 21.2816 38.7989 20.5468V8.33189Z" fill="#333333"/>
<path d="M48.4585 15.255V26.3335H46.7446V15.255L41.7819 1.26355H43.6386L47.6737 13.0523L51.6728 1.26355H53.6001L48.4601 15.255H48.4585Z" fill="#333333"/>
<path d="M19.5818 14.7619C20.1684 14.7619 20.6439 14.2889 20.6439 13.7055C20.6439 13.122 20.1684 12.649 19.5818 12.649C18.9952 12.649 18.5197 13.122 18.5197 13.7055C18.5197 14.2889 18.9952 14.7619 19.5818 14.7619Z" fill="#522742"/>
<path d="M14.5271 25.2607H0.555054V26.7254H14.5271V25.2607Z" fill="#522742"/>
</svg>
