<svg width="68" height="33" viewBox="0 0 68 33" fill="none" xmlns="http://www.w3.org/2000/svg">
<path d="M15.7372 27.9463L15.6917 3.14721L10.0687 27.9463H8.04405L2.42101 3.14721L2.46651 27.9463H0.261963L0.532877 0.783936H3.77145L9.03258 23.6235L14.2937 0.783936H17.5323L17.8466 27.9463H15.7331H15.7372Z" fill="white"/>
<path d="M33.6363 26.3927V26.9933C33.6363 27.188 33.6218 27.3889 33.5908 27.5959C33.5908 27.7742 33.568 28.0345 33.5225 28.3748C33.477 28.717 33.3798 29.0737 33.2309 29.4447C33.08 29.8177 32.8628 30.2031 32.5795 30.6028C32.2941 31.0045 31.9115 31.3693 31.4338 31.6952C30.8051 32.1113 30.1826 32.3634 29.5663 32.4536C28.9521 32.5418 28.524 32.5868 28.2841 32.5868C28.0442 32.5868 27.6782 32.5561 27.1819 32.4987C26.6876 32.4393 26.1706 32.2609 25.6308 31.9637C24.9711 31.6071 24.4686 31.1685 24.1232 30.6478C23.7778 30.1293 23.5297 29.6087 23.3808 29.088C23.2298 28.5695 23.1471 28.0919 23.1326 27.6615C23.1161 27.231 23.1099 26.9256 23.1099 26.7473V22.2011H25.2689V26.3025C25.2689 27.0158 25.3206 27.7004 25.4261 28.3522C25.5316 29.0061 25.9121 29.5697 26.5718 30.0452C26.9316 30.3117 27.2832 30.4757 27.6286 30.5351C27.9739 30.5946 28.22 30.6232 28.371 30.6232C28.522 30.6232 28.7598 30.6007 29.0907 30.5577C29.4195 30.5126 29.7504 30.3732 30.0792 30.1334C30.439 29.8956 30.7162 29.621 30.9126 29.3094C31.107 28.9979 31.2497 28.6843 31.3407 28.3727C31.4296 28.0612 31.4751 27.7783 31.4751 27.5262V0.67334H33.6342V26.3927H33.6363Z" fill="white"/>
<path d="M50.5944 25.7245C50.5944 26.4685 50.5406 27.1736 50.4372 27.8418C50.3317 28.51 50.0691 29.172 49.6493 29.8259C49.4693 30.1231 49.2295 30.4264 48.9296 30.74C48.6297 31.0516 48.2554 31.3426 47.8046 31.6091C47.3537 31.8776 46.8222 32.099 46.208 32.2773C45.5938 32.4556 44.8824 32.5437 44.0717 32.5437C43.9208 32.5437 43.6519 32.5273 43.2631 32.4986C42.8723 32.4679 42.438 32.3941 41.9582 32.2752C41.4784 32.1564 40.9841 31.9719 40.4733 31.7177C39.9625 31.4656 39.5137 31.1008 39.1229 30.6252C38.4942 29.8525 38.1033 29.0285 37.9544 28.1513C37.8035 27.2761 37.729 26.3619 37.729 25.4109V7.67089C37.729 7.49257 37.7518 7.03139 37.7952 6.28941C37.8407 5.54742 37.9813 4.81774 38.2212 4.1065C38.67 2.76806 39.4517 1.79651 40.5726 1.1857C41.6914 0.57695 42.924 0.287945 44.2661 0.316641C44.9837 0.316641 45.6848 0.404777 46.3714 0.585148C47.058 0.76347 47.6991 1.06068 48.2968 1.47676C48.8779 1.89284 49.3204 2.36837 49.6265 2.90334C49.9326 3.4383 50.1539 4.01016 50.2904 4.61892C50.4289 5.22767 50.5116 5.84462 50.5427 6.46773C50.5737 7.09083 50.5902 7.71598 50.5902 8.34113V25.7245H50.5944ZM48.4353 9.5443C48.4353 8.20791 48.3898 7.13797 48.3009 6.3345C48.212 5.53102 48.0031 4.83413 47.6743 4.23973C47.5853 4.0614 47.4344 3.83184 47.2255 3.54898C47.0166 3.26613 46.6878 3.00787 46.2411 2.76806C46.0922 2.67992 45.8316 2.57539 45.4573 2.45651C45.0851 2.33762 44.6446 2.27818 44.1379 2.27818C43.5113 2.27818 42.9963 2.36017 42.5931 2.5221C42.1898 2.68607 41.9003 2.8275 41.7203 2.94638C41.2426 3.27433 40.8786 3.65352 40.6243 4.08395C40.372 4.51438 40.1921 4.93867 40.0866 5.35475C39.9832 5.77084 39.9232 6.15618 39.9087 6.51282C39.8922 6.86946 39.886 7.10723 39.886 7.22611V24.5664C39.886 25.458 39.9087 26.1713 39.9522 26.7063C39.9977 27.2412 40.0928 27.7167 40.2438 28.1328C40.3327 28.3419 40.4671 28.5858 40.647 28.8687C40.8269 29.1515 41.071 29.42 41.3853 29.6701C41.6997 29.9222 42.0864 30.1374 42.5496 30.3157C43.0129 30.4941 43.5568 30.5842 44.1834 30.5842C45.1368 30.5842 45.9578 30.3321 46.6444 29.8259C47.4799 29.2315 47.9866 28.4874 48.1665 27.5979C48.3464 26.7063 48.4353 25.8003 48.4353 24.8779V9.5443Z" fill="white"/>
<path d="M60.6037 18.235V32.142H58.4446V18.235L52.1929 0.671265H54.5318L59.6151 15.4699L64.6529 0.671265H67.0808L60.6057 18.235H60.6037Z" fill="white"/>
<path d="M24.2265 17.6159C24.9654 17.6159 25.5645 17.0222 25.5645 16.2898C25.5645 15.5574 24.9654 14.9636 24.2265 14.9636C23.4875 14.9636 22.8884 15.5574 22.8884 16.2898C22.8884 17.0222 23.4875 17.6159 24.2265 17.6159Z" fill="white"/>
<path d="M17.859 30.7954H0.257812V32.634H17.859V30.7954Z" fill="white"/>
</svg>
