<svg width="97" height="59" viewBox="0 0 97 59" fill="none" xmlns="http://www.w3.org/2000/svg">
<path d="M23.737 48.9463L23.6915 24.1472L18.0684 48.9463H16.0438L10.4208 24.1472L10.4663 48.9463H8.26172L8.53263 21.7839H11.7712L17.0323 44.6235L22.2935 21.7839H25.532L25.8464 48.9463H23.7328H23.737Z" fill="white"/>
<path d="M41.6363 47.3927V47.9933C41.6363 48.188 41.6218 48.3889 41.5908 48.5959C41.5908 48.7742 41.568 49.0345 41.5225 49.3748C41.477 49.717 41.3798 50.0737 41.2309 50.4447C41.08 50.8177 40.8628 51.2031 40.5795 51.6028C40.2941 52.0045 39.9115 52.3693 39.4338 52.6952C38.8051 53.1113 38.1826 53.3634 37.5663 53.4536C36.9521 53.5418 36.524 53.5868 36.2841 53.5868C36.0442 53.5868 35.6782 53.5561 35.1819 53.4987C34.6876 53.4393 34.1706 53.2609 33.6308 52.9637C32.9711 52.6071 32.4686 52.1685 32.1232 51.6478C31.7778 51.1293 31.5297 50.6087 31.3808 50.088C31.2298 49.5695 31.1471 49.0919 31.1326 48.6615C31.1161 48.231 31.1099 47.9256 31.1099 47.7473V43.2011H33.2689V47.3025C33.2689 48.0158 33.3206 48.7004 33.4261 49.3522C33.5316 50.0061 33.9121 50.5697 34.5718 51.0452C34.9316 51.3117 35.2832 51.4757 35.6286 51.5351C35.9739 51.5946 36.22 51.6232 36.371 51.6232C36.522 51.6232 36.7598 51.6007 37.0907 51.5577C37.4195 51.5126 37.7504 51.3732 38.0792 51.1334C38.439 50.8956 38.7162 50.621 38.9126 50.3094C39.107 49.9979 39.2497 49.6843 39.3407 49.3727C39.4296 49.0612 39.4751 48.7783 39.4751 48.5262V21.6733H41.6342V47.3927H41.6363Z" fill="white"/>
<path d="M58.5939 46.7245C58.5939 47.4685 58.5401 48.1736 58.4367 48.8418C58.3312 49.51 58.0686 50.172 57.6488 50.8259C57.4689 51.1231 57.229 51.4264 56.9291 51.74C56.6292 52.0516 56.2549 52.3426 55.8041 52.6091C55.3532 52.8776 54.8217 53.099 54.2075 53.2773C53.5933 53.4556 52.8819 53.5437 52.0712 53.5437C51.9203 53.5437 51.6514 53.5273 51.2626 53.4986C50.8718 53.4679 50.4375 53.3941 49.9577 53.2752C49.4779 53.1564 48.9836 52.9719 48.4728 52.7177C47.962 52.4656 47.5132 52.1008 47.1224 51.6252C46.4937 50.8525 46.1028 50.0285 45.9539 49.1513C45.803 48.2761 45.7285 47.3619 45.7285 46.4109V28.6709C45.7285 28.4926 45.7513 28.0314 45.7947 27.2894C45.8402 26.5474 45.9808 25.8177 46.2207 25.1065C46.6695 23.7681 47.4512 22.7965 48.5721 22.1857C49.6909 21.5769 50.9235 21.2879 52.2656 21.3166C52.9832 21.3166 53.6843 21.4048 54.3709 21.5851C55.0575 21.7635 55.6986 22.0607 56.2963 22.4768C56.8774 22.8928 57.32 23.3684 57.626 23.9033C57.9321 24.4383 58.1534 25.0102 58.2899 25.6189C58.4284 26.2277 58.5112 26.8446 58.5422 27.4677C58.5732 28.0908 58.5897 28.716 58.5897 29.3411V46.7245H58.5939ZM56.4348 30.5443C56.4348 29.2079 56.3893 28.138 56.3004 27.3345C56.2115 26.531 56.0026 25.8341 55.6738 25.2397C55.5849 25.0614 55.4339 24.8318 55.225 24.549C55.0161 24.2661 54.6873 24.0079 54.2406 23.7681C54.0917 23.6799 53.8311 23.5754 53.4568 23.4565C53.0846 23.3376 52.6441 23.2782 52.1374 23.2782C51.5108 23.2782 50.9958 23.3602 50.5926 23.5221C50.1893 23.6861 49.8998 23.8275 49.7199 23.9464C49.2421 24.2743 48.8782 24.6535 48.6238 25.084C48.3715 25.5144 48.1916 25.9387 48.0861 26.3548C47.9827 26.7708 47.9227 27.1562 47.9082 27.5128C47.8917 27.8695 47.8855 28.1072 47.8855 28.2261V45.5664C47.8855 46.458 47.9082 47.1713 47.9517 47.7063C47.9972 48.2412 48.0923 48.7167 48.2433 49.1328C48.3322 49.3419 48.4666 49.5858 48.6465 49.8687C48.8265 50.1515 49.0705 50.42 49.3848 50.6701C49.6992 50.9222 50.0859 51.1374 50.5491 51.3157C51.0124 51.4941 51.5563 51.5842 52.1829 51.5842C53.1363 51.5842 53.9573 51.3321 54.6439 50.8259C55.4794 50.2315 55.9861 49.4874 56.166 48.5979C56.3459 47.7063 56.4348 46.8003 56.4348 45.8779V30.5443Z" fill="white"/>
<path d="M68.6037 39.2348V53.1419H66.4446V39.2348L60.1929 21.6711H62.5318L67.6151 36.4698L72.6529 21.6711H75.0808L68.6057 39.2348H68.6037Z" fill="white"/>
<path d="M32.2267 38.6159C32.9657 38.6159 33.5647 38.0222 33.5647 37.2898C33.5647 36.5574 32.9657 35.9636 32.2267 35.9636C31.4877 35.9636 30.8887 36.5574 30.8887 37.2898C30.8887 38.0222 31.4877 38.6159 32.2267 38.6159Z" fill="white"/>
<path d="M25.859 51.7954H8.25781V53.634H25.859V51.7954Z" fill="white"/>
<path d="M23.737 48.9463L23.6915 24.1472L18.0684 48.9463H16.0438L10.4208 24.1472L10.4663 48.9463H8.26172L8.53263 21.7839H11.7712L17.0323 44.6235L22.2935 21.7839H25.532L25.8464 48.9463H23.7328H23.737Z" fill="white"/>
<path d="M41.6363 47.3927V47.9933C41.6363 48.188 41.6218 48.3889 41.5908 48.5959C41.5908 48.7742 41.568 49.0345 41.5225 49.3748C41.477 49.717 41.3798 50.0737 41.2309 50.4447C41.08 50.8177 40.8628 51.2031 40.5795 51.6028C40.2941 52.0045 39.9115 52.3693 39.4338 52.6952C38.8051 53.1113 38.1826 53.3634 37.5663 53.4536C36.9521 53.5418 36.524 53.5868 36.2841 53.5868C36.0442 53.5868 35.6782 53.5561 35.1819 53.4987C34.6876 53.4393 34.1706 53.2609 33.6308 52.9637C32.9711 52.6071 32.4686 52.1685 32.1232 51.6478C31.7778 51.1293 31.5297 50.6087 31.3808 50.088C31.2298 49.5695 31.1471 49.0919 31.1326 48.6615C31.1161 48.231 31.1099 47.9256 31.1099 47.7473V43.2011H33.2689V47.3025C33.2689 48.0158 33.3206 48.7004 33.4261 49.3522C33.5316 50.0061 33.9121 50.5697 34.5718 51.0452C34.9316 51.3117 35.2832 51.4757 35.6286 51.5351C35.9739 51.5946 36.22 51.6232 36.371 51.6232C36.522 51.6232 36.7598 51.6007 37.0907 51.5577C37.4195 51.5126 37.7504 51.3732 38.0792 51.1334C38.439 50.8956 38.7162 50.621 38.9126 50.3094C39.107 49.9979 39.2497 49.6843 39.3407 49.3727C39.4296 49.0612 39.4751 48.7783 39.4751 48.5262V21.6733H41.6342V47.3927H41.6363Z" fill="white"/>
<path d="M58.5939 46.7245C58.5939 47.4685 58.5401 48.1736 58.4367 48.8418C58.3312 49.51 58.0686 50.172 57.6488 50.8259C57.4689 51.1231 57.229 51.4264 56.9291 51.74C56.6292 52.0516 56.2549 52.3426 55.8041 52.6091C55.3532 52.8776 54.8217 53.099 54.2075 53.2773C53.5933 53.4556 52.8819 53.5437 52.0712 53.5437C51.9203 53.5437 51.6514 53.5273 51.2626 53.4986C50.8718 53.4679 50.4375 53.3941 49.9577 53.2752C49.4779 53.1564 48.9836 52.9719 48.4728 52.7177C47.962 52.4656 47.5132 52.1008 47.1224 51.6252C46.4937 50.8525 46.1028 50.0285 45.9539 49.1513C45.803 48.2761 45.7285 47.3619 45.7285 46.4109V28.6709C45.7285 28.4926 45.7513 28.0314 45.7947 27.2894C45.8402 26.5474 45.9808 25.8177 46.2207 25.1065C46.6695 23.7681 47.4512 22.7965 48.5721 22.1857C49.6909 21.5769 50.9235 21.2879 52.2656 21.3166C52.9832 21.3166 53.6843 21.4048 54.3709 21.5851C55.0575 21.7635 55.6986 22.0607 56.2963 22.4768C56.8774 22.8928 57.32 23.3684 57.626 23.9033C57.9321 24.4383 58.1534 25.0102 58.2899 25.6189C58.4284 26.2277 58.5112 26.8446 58.5422 27.4677C58.5732 28.0908 58.5897 28.716 58.5897 29.3411V46.7245H58.5939ZM56.4348 30.5443C56.4348 29.2079 56.3893 28.138 56.3004 27.3345C56.2115 26.531 56.0026 25.8341 55.6738 25.2397C55.5849 25.0614 55.4339 24.8318 55.225 24.549C55.0161 24.2661 54.6873 24.0079 54.2406 23.7681C54.0917 23.6799 53.8311 23.5754 53.4568 23.4565C53.0846 23.3376 52.6441 23.2782 52.1374 23.2782C51.5108 23.2782 50.9958 23.3602 50.5926 23.5221C50.1893 23.6861 49.8998 23.8275 49.7199 23.9464C49.2421 24.2743 48.8782 24.6535 48.6238 25.084C48.3715 25.5144 48.1916 25.9387 48.0861 26.3548C47.9827 26.7708 47.9227 27.1562 47.9082 27.5128C47.8917 27.8695 47.8855 28.1072 47.8855 28.2261V45.5664C47.8855 46.458 47.9082 47.1713 47.9517 47.7063C47.9972 48.2412 48.0923 48.7167 48.2433 49.1328C48.3322 49.3419 48.4666 49.5858 48.6465 49.8687C48.8265 50.1515 49.0705 50.42 49.3848 50.6701C49.6992 50.9222 50.0859 51.1374 50.5491 51.3157C51.0124 51.4941 51.5563 51.5842 52.1829 51.5842C53.1363 51.5842 53.9573 51.3321 54.6439 50.8259C55.4794 50.2315 55.9861 49.4874 56.166 48.5979C56.3459 47.7063 56.4348 46.8003 56.4348 45.8779V30.5443Z" fill="white"/>
<path d="M68.6037 39.2348V53.1419H66.4446V39.2348L60.1929 21.6711H62.5318L67.6151 36.4698L72.6529 21.6711H75.0808L68.6057 39.2348H68.6037Z" fill="white"/>
<path d="M32.2267 38.6159C32.9657 38.6159 33.5647 38.0222 33.5647 37.2898C33.5647 36.5574 32.9657 35.9636 32.2267 35.9636C31.4877 35.9636 30.8887 36.5574 30.8887 37.2898C30.8887 38.0222 31.4877 38.6159 32.2267 38.6159Z" fill="white"/>
<path d="M25.859 51.7954H8.25781V53.634H25.859V51.7954Z" fill="white"/>
</svg>
