<svg width="72" height="44" viewBox="0 0 72 44" fill="none" xmlns="http://www.w3.org/2000/svg">
<path d="M17.6191 36.5023L17.5853 18.0081L13.4115 36.5023H11.9087L7.73492 18.0081L7.76869 36.5023H6.13232L6.33342 16.2456H8.7373L12.6425 33.2785L16.5476 16.2456H18.9515L19.1849 36.5023H17.616H17.6191Z" fill="#EDCE4B"/>
<path d="M30.9052 35.3436V35.7915C30.9052 35.9367 30.8945 36.0865 30.8714 36.2409C30.8714 36.3739 30.8545 36.568 30.8208 36.8218C30.787 37.077 30.7149 37.343 30.6043 37.6197C30.4923 37.8979 30.3311 38.1853 30.1208 38.4833C29.909 38.7829 29.625 39.055 29.2704 39.2981C28.8037 39.6084 28.3417 39.7964 27.8842 39.8636C27.4283 39.9294 27.1106 39.963 26.9325 39.963C26.7544 39.963 26.4827 39.9401 26.1143 39.8973C25.7474 39.8529 25.3637 39.7199 24.963 39.4983C24.4733 39.2323 24.1003 38.9052 23.844 38.517C23.5876 38.1302 23.4034 37.742 23.2929 37.3537C23.1808 36.967 23.1194 36.6108 23.1087 36.2898C23.0964 35.9688 23.0918 35.7411 23.0918 35.6081V32.2177H24.6944V35.2764C24.6944 35.8083 24.7328 36.3189 24.8111 36.805C24.8893 37.2926 25.1718 37.7129 25.6615 38.0676C25.9286 38.2663 26.1895 38.3886 26.4459 38.4329C26.7022 38.4772 26.8849 38.4986 26.997 38.4986C27.109 38.4986 27.2856 38.4818 27.5312 38.4497C27.7752 38.4161 28.0208 38.3121 28.2649 38.1333C28.532 37.956 28.7377 37.7511 28.8835 37.5188C29.0278 37.2864 29.1338 37.0526 29.2013 36.8202C29.2673 36.5879 29.3011 36.377 29.3011 36.1889V16.1631H30.9037V35.3436H30.9052Z" fill="#333333"/>
<path d="M43.4924 34.8454C43.4924 35.4003 43.4525 35.9261 43.3758 36.4244C43.2975 36.9227 43.1025 37.4165 42.7909 37.9041C42.6574 38.1257 42.4793 38.352 42.2567 38.5858C42.0341 38.8182 41.7563 39.0352 41.4216 39.2339C41.087 39.4342 40.6925 39.5993 40.2366 39.7323C39.7807 39.8652 39.2526 39.931 38.6509 39.931C38.5388 39.931 38.3393 39.9187 38.0507 39.8973C37.7605 39.8744 37.4382 39.8194 37.0821 39.7307C36.7259 39.6421 36.359 39.5045 35.9799 39.315C35.6007 39.1269 35.2676 38.8549 34.9775 38.5002C34.5108 37.924 34.2207 37.3095 34.1102 36.6552C33.9981 36.0025 33.9429 35.3208 33.9429 34.6115V21.3817C33.9429 21.2487 33.9598 20.9048 33.992 20.3515C34.0258 19.7981 34.1301 19.2539 34.3082 18.7235C34.6413 17.7254 35.2216 17.0008 36.0536 16.5453C36.884 16.0913 37.7989 15.8758 38.7952 15.8972C39.3278 15.8972 39.8482 15.9629 40.3578 16.0974C40.8675 16.2304 41.3433 16.4521 41.787 16.7624C42.2183 17.0727 42.5468 17.4273 42.774 17.8263C43.0012 18.2252 43.1655 18.6517 43.2668 19.1057C43.3696 19.5597 43.431 20.0198 43.454 20.4845C43.4771 20.9491 43.4893 21.4154 43.4893 21.8816V34.8454H43.4924ZM41.8898 22.7788C41.8898 21.7822 41.8561 20.9843 41.79 20.3851C41.724 19.7859 41.569 19.2662 41.3249 18.8229C41.2589 18.6899 41.1469 18.5187 40.9918 18.3078C40.8368 18.0968 40.5927 17.9042 40.2611 17.7254C40.1506 17.6596 39.9572 17.5817 39.6794 17.493C39.403 17.4044 39.0761 17.36 38.7 17.36C38.2349 17.36 37.8526 17.4212 37.5533 17.5419C37.254 17.6642 37.0391 17.7697 36.9055 17.8584C36.5509 18.1029 36.2808 18.3857 36.0919 18.7067C35.9047 19.0277 35.7711 19.3441 35.6928 19.6544C35.6161 19.9647 35.5716 20.2521 35.5608 20.5181C35.5485 20.7841 35.5439 20.9614 35.5439 21.05V33.9818C35.5439 34.6467 35.5608 35.1786 35.5931 35.5776C35.6268 35.9765 35.6974 36.3312 35.8095 36.6415C35.8755 36.7974 35.9753 36.9793 36.1088 37.1902C36.2424 37.4012 36.4235 37.6014 36.6568 37.7879C36.8902 37.9759 37.1772 38.1364 37.5211 38.2694C37.8649 38.4024 38.2686 38.4697 38.7338 38.4697C39.4414 38.4697 40.0508 38.2816 40.5605 37.9041C41.1806 37.4608 41.5567 36.9059 41.6903 36.2425C41.8238 35.5776 41.8898 34.902 41.8898 34.2141V22.7788Z" fill="#333333"/>
<path d="M50.9223 29.26V39.6313H49.3197V29.26L44.6792 16.1616H46.4153L50.1885 27.1979L53.9279 16.1616H55.73L50.9238 29.26H50.9223Z" fill="#333333"/>
<path d="M23.9204 28.7983C24.4689 28.7983 24.9136 28.3555 24.9136 27.8093C24.9136 27.2631 24.4689 26.8203 23.9204 26.8203C23.3719 26.8203 22.9272 27.2631 22.9272 27.8093C22.9272 28.3555 23.3719 28.7983 23.9204 28.7983Z" fill="#EDCE4B"/>
<path d="M19.1942 38.6272H6.12939V39.9983H19.1942V38.6272Z" fill="#EDCE4B"/>
<path d="M17.6191 36.5023L17.5853 18.0081L13.4115 36.5023H11.9087L7.73492 18.0081L7.76869 36.5023H6.13232L6.33342 16.2456H8.7373L12.6425 33.2785L16.5476 16.2456H18.9515L19.1849 36.5023H17.616H17.6191Z" fill="#522742"/>
<path d="M30.9052 35.3436V35.7915C30.9052 35.9367 30.8945 36.0865 30.8714 36.2409C30.8714 36.3739 30.8545 36.568 30.8208 36.8218C30.787 37.077 30.7149 37.343 30.6043 37.6197C30.4923 37.8979 30.3311 38.1853 30.1208 38.4833C29.909 38.7829 29.625 39.055 29.2704 39.2981C28.8037 39.6084 28.3417 39.7964 27.8842 39.8636C27.4283 39.9294 27.1106 39.963 26.9325 39.963C26.7544 39.963 26.4827 39.9401 26.1143 39.8973C25.7474 39.8529 25.3637 39.7199 24.963 39.4983C24.4733 39.2323 24.1003 38.9052 23.844 38.517C23.5876 38.1302 23.4034 37.742 23.2929 37.3537C23.1808 36.967 23.1194 36.6108 23.1087 36.2898C23.0964 35.9688 23.0918 35.7411 23.0918 35.6081V32.2177H24.6944V35.2764C24.6944 35.8083 24.7328 36.3189 24.8111 36.805C24.8893 37.2926 25.1718 37.7129 25.6615 38.0676C25.9286 38.2663 26.1895 38.3886 26.4459 38.4329C26.7022 38.4772 26.8849 38.4986 26.997 38.4986C27.109 38.4986 27.2856 38.4818 27.5312 38.4497C27.7752 38.4161 28.0208 38.3121 28.2649 38.1333C28.532 37.956 28.7377 37.7511 28.8835 37.5188C29.0278 37.2864 29.1338 37.0526 29.2013 36.8202C29.2673 36.5879 29.3011 36.377 29.3011 36.1889V16.1631H30.9037V35.3436H30.9052Z" fill="#333333"/>
<path d="M43.4924 34.8454C43.4924 35.4003 43.4525 35.9261 43.3758 36.4244C43.2975 36.9227 43.1025 37.4165 42.7909 37.9041C42.6574 38.1257 42.4793 38.352 42.2567 38.5858C42.0341 38.8182 41.7563 39.0352 41.4216 39.2339C41.087 39.4342 40.6925 39.5993 40.2366 39.7323C39.7807 39.8652 39.2526 39.931 38.6509 39.931C38.5388 39.931 38.3393 39.9187 38.0507 39.8973C37.7605 39.8744 37.4382 39.8194 37.0821 39.7307C36.7259 39.6421 36.359 39.5045 35.9799 39.315C35.6007 39.1269 35.2676 38.8549 34.9775 38.5002C34.5108 37.924 34.2207 37.3095 34.1102 36.6552C33.9981 36.0025 33.9429 35.3208 33.9429 34.6115V21.3817C33.9429 21.2487 33.9598 20.9048 33.992 20.3515C34.0258 19.7981 34.1301 19.2539 34.3082 18.7235C34.6413 17.7254 35.2216 17.0008 36.0536 16.5453C36.884 16.0913 37.7989 15.8758 38.7952 15.8972C39.3278 15.8972 39.8482 15.9629 40.3578 16.0974C40.8675 16.2304 41.3433 16.4521 41.787 16.7624C42.2183 17.0727 42.5468 17.4273 42.774 17.8263C43.0012 18.2252 43.1655 18.6517 43.2668 19.1057C43.3696 19.5597 43.431 20.0198 43.454 20.4845C43.4771 20.9491 43.4893 21.4154 43.4893 21.8816V34.8454H43.4924ZM41.8898 22.7788C41.8898 21.7822 41.8561 20.9843 41.79 20.3851C41.724 19.7859 41.569 19.2662 41.3249 18.8229C41.2589 18.6899 41.1469 18.5187 40.9918 18.3078C40.8368 18.0968 40.5927 17.9042 40.2611 17.7254C40.1506 17.6596 39.9572 17.5817 39.6794 17.493C39.403 17.4044 39.0761 17.36 38.7 17.36C38.2349 17.36 37.8526 17.4212 37.5533 17.5419C37.254 17.6642 37.0391 17.7697 36.9055 17.8584C36.5509 18.1029 36.2808 18.3857 36.0919 18.7067C35.9047 19.0277 35.7711 19.3441 35.6928 19.6544C35.6161 19.9647 35.5716 20.2521 35.5608 20.5181C35.5485 20.7841 35.5439 20.9614 35.5439 21.05V33.9818C35.5439 34.6467 35.5608 35.1786 35.5931 35.5776C35.6268 35.9765 35.6974 36.3312 35.8095 36.6415C35.8755 36.7974 35.9753 36.9793 36.1088 37.1902C36.2424 37.4012 36.4235 37.6014 36.6568 37.7879C36.8902 37.9759 37.1772 38.1364 37.5211 38.2694C37.8649 38.4024 38.2686 38.4697 38.7338 38.4697C39.4414 38.4697 40.0508 38.2816 40.5605 37.9041C41.1806 37.4608 41.5567 36.9059 41.6903 36.2425C41.8238 35.5776 41.8898 34.902 41.8898 34.2141V22.7788Z" fill="#333333"/>
<path d="M50.9223 29.26V39.6313H49.3197V29.26L44.6792 16.1616H46.4153L50.1885 27.1979L53.9279 16.1616H55.73L50.9238 29.26H50.9223Z" fill="#333333"/>
<path d="M23.9204 28.7983C24.4689 28.7983 24.9136 28.3555 24.9136 27.8093C24.9136 27.2631 24.4689 26.8203 23.9204 26.8203C23.3719 26.8203 22.9272 27.2631 22.9272 27.8093C22.9272 28.3555 23.3719 28.7983 23.9204 28.7983Z" fill="#522742"/>
<path d="M19.1942 38.6272H6.12939V39.9983H19.1942V38.6272Z" fill="#522742"/>
</svg>
